<?xml version="1.0" encoding="UTF-8" standalone="no"?>
<!DOCTYPE svg PUBLIC "-//W3C//DTD SVG 1.1//EN" "http://www.w3.org/Graphics/SVG/1.1/DTD/svg11.dtd">
<svg xmlns="http://www.w3.org/2000/svg" version="1.1" viewBox="0 0 1448 1448">
<g stroke-width="2.00" fill="none" stroke-linecap="butt">
<path stroke="#535181" vector-effect="non-scaling-stroke" d="
  M 515.29 888.75
  Q 516.17 886.84 515.96 884.75"
/>
<path stroke="#9993af" vector-effect="non-scaling-stroke" d="
  M 515.96 884.75
  Q 526.43 826.69 538.79 769.00"
/>
<path stroke="#535181" vector-effect="non-scaling-stroke" d="
  M 538.79 769.00
  Q 539.81 766.60 539.71 764.00"
/>
<path stroke="#9993af" vector-effect="non-scaling-stroke" d="
  M 539.71 764.00
  L 551.79 707.25"
/>
<path stroke="#717097" vector-effect="non-scaling-stroke" d="
  M 551.79 707.25
  Q 552.81 705.52 552.71 703.50"
/>
<path stroke="#9993af" vector-effect="non-scaling-stroke" d="
  M 552.71 703.50
  Q 566.22 640.26 580.79 577.25"
/>
<path stroke="#717097" vector-effect="non-scaling-stroke" d="
  M 580.79 577.25
  Q 581.69 575.62 581.71 573.75"
/>
<path stroke="#9993af" vector-effect="non-scaling-stroke" d="
  M 581.71 573.75
  Q 593.10 523.35 604.75 473.00
  Q 605.88 468.15 606.79 463.25"
/>
<path stroke="#717097" vector-effect="non-scaling-stroke" d="
  M 606.79 463.25
  Q 608.20 460.56 608.21 457.50"
/>
<path stroke="#9993af" vector-effect="non-scaling-stroke" d="
  M 608.21 457.50
  L 641.07 315.05
  A 0.35 0.35 -86.5 0 0 640.69 314.62
  L 446.52 340.01
  A 1.25 1.25 -88.0 0 0 445.47 340.99
  Q 408.24 522.62 373.61 705.18
  Q 371.77 714.89 370.00 724.84
  Q 350.57 834.09 331.47 943.40
  Q 329.68 953.65 328.18 963.13
  Q 314.34 1050.77 302.75 1138.75
  A 0.33 0.32 85.0 0 0 303.17 1139.11
  Q 320.10 1133.61 337.05 1129.46
  Q 380.57 1118.80 424.99 1112.93
  Q 496.32 1103.51 568.25 1101.75
  Q 595.24 1101.09 611.18 1101.55
  A 0.39 0.39 8.9 0 1 611.55 1102.05
  L 603.52 1129.46
  A 0.60 0.59 -85.4 0 0 604.16 1130.23
  Q 687.17 1119.46 770.50 1110.00
  Q 775.95 1109.38 793.94 1106.76
  A 0.78 0.78 -85.9 0 0 794.58 1106.20
  L 839.05 946.43
  A 0.68 0.65 -81.7 0 1 839.68 945.94
  L 935.82 945.75
  A 0.45 0.44 2.9 0 1 936.27 946.24
  Q 931.93 992.34 927.62 1038.23
  Q 926.67 1048.41 925.55 1058.12
  Q 920.46 1102.32 917.50 1124.75
  Q 916.57 1131.82 916.50 1134.54"
/>
<path stroke="#535181" vector-effect="non-scaling-stroke" d="
  M 916.50 1134.54
  Q 918.84 1135.13 921.00 1134.04"
/>
<path stroke="#9993af" vector-effect="non-scaling-stroke" d="
  M 921.00 1134.04
  Q 971.71 1125.41 1022.47 1117.07
  Q 1037.21 1114.65 1057.25 1112.50
  Q 1077.31 1110.35 1104.58 1105.65
  A 0.62 0.61 85.9 0 0 1105.08 1105.07
  Q 1110.63 964.79 1115.59 824.49
  Q 1116.38 802.28 1118.50 758.75
  Q 1127.36 576.70 1134.04 456.75"
/>
<path stroke="#717097" vector-effect="non-scaling-stroke" d="
  M 1134.04 456.75
  L 1134.46 448.25"
/>
<path stroke="#9993af" vector-effect="non-scaling-stroke" d="
  M 1134.46 448.25
  L 1142.04 346.25"
/>
<path stroke="#717097" vector-effect="non-scaling-stroke" d="
  M 1142.04 346.25
  L 1142.71 340.00"
/>
<path stroke="#9993af" vector-effect="non-scaling-stroke" d="
  M 1142.71 340.00
  L 1145.31 309.55
  A 0.69 0.69 -2.6 0 0 1144.51 308.82
  Q 1059.41 324.01 973.25 331.75
  Q 874.30 340.63 837.50 343.46
  A 0.71 0.71 5.2 0 0 836.87 343.98
  Q 817.01 416.06 809.00 442.75
  Q 758.12 612.31 708.02 782.10
  Q 705.10 792.00 702.32 801.26
  Q 664.22 928.53 625.73 1055.55
  Q 625.42 1056.56 625.25 1055.52
  Q 618.84 1016.23 616.75 976.48
  A 0.45 0.44 -1.3 0 0 616.30 976.06
  Q 591.47 976.17 566.50 976.45
  Q 534.20 976.80 501.11 979.32
  A 0.45 0.45 -88.4 0 1 500.63 978.81
  Q 507.18 933.46 515.29 888.75"
/>
<path stroke="#d8d9dc" vector-effect="non-scaling-stroke" d="
  M 1142.71 340.00
  Q 1141.72 343.05 1142.04 346.25"
/>
<path stroke="#d8d9dc" vector-effect="non-scaling-stroke" d="
  M 1134.46 448.25
  Q 1133.66 452.46 1134.04 456.75"
/>
<path stroke="#b9bac6" vector-effect="non-scaling-stroke" d="
  M 921.00 1134.04
  L 916.50 1134.54"
/>
<path stroke="#d8d9dc" vector-effect="non-scaling-stroke" d="
  M 608.21 457.50
  Q 606.87 460.22 606.79 463.25"
/>
<path stroke="#d8d9dc" vector-effect="non-scaling-stroke" d="
  M 581.71 573.75
  Q 580.55 575.28 580.79 577.25"
/>
<path stroke="#d8d9dc" vector-effect="non-scaling-stroke" d="
  M 552.71 703.50
  Q 551.35 705.11 551.79 707.25"
/>
<path stroke="#b9bac6" vector-effect="non-scaling-stroke" d="
  M 539.71 764.00
  Q 538.74 766.42 538.79 769.00"
/>
<path stroke="#b9bac6" vector-effect="non-scaling-stroke" d="
  M 515.96 884.75
  Q 515.08 886.65 515.29 888.75"
/>
<path stroke="#d8d9dc" vector-effect="non-scaling-stroke" d="
  M 896.46 710.75
  Q 895.39 712.04 895.79 713.75"
/>
<path stroke="#9993af" vector-effect="non-scaling-stroke" d="
  M 895.79 713.75
  Q 885.13 756.62 874.66 799.54
  Q 871.34 813.18 867.71 826.75"
/>
<path stroke="#d8d9dc" vector-effect="non-scaling-stroke" d="
  M 867.71 826.75
  Q 866.11 830.10 866.21 833.75"
/>
<path stroke="#9993af" vector-effect="non-scaling-stroke" d="
  M 866.21 833.75
  Q 867.33 834.08 869.25 834.00
  Q 883.67 833.37 898.09 832.67
  Q 898.19 832.67 915.41 831.99
  Q 930.66 831.39 945.62 829.79
  A 0.96 0.95 87.9 0 0 946.47 828.87
  Q 946.69 821.24 947.28 814.75
  Q 956.40 715.27 965.00 615.75
  Q 966.35 600.17 970.01 562.96
  Q 971.01 552.82 971.70 543.02
  Q 974.13 508.39 976.46 473.75"
/>
<path stroke="#b9bac6" vector-effect="non-scaling-stroke" d="
  M 976.46 473.75
  Q 977.32 470.94 976.96 468.00"
/>
<path stroke="#9993af" vector-effect="non-scaling-stroke" d="
  M 976.96 468.00
  L 977.66 457.13
  A 0.67 0.61 -89.8 0 0 977.01 456.41
  L 961.56 457.52
  A 0.71 0.69 -84.1 0 0 960.93 458.05
  Q 954.50 481.25 948.48 504.57
  Q 946.06 513.94 943.31 523.89
  Q 935.25 553.11 928.03 582.56
  Q 912.31 646.67 896.46 710.75"
/>
<path stroke="#535181" vector-effect="non-scaling-stroke" d="
  M 976.96 468.00
  Q 975.62 470.81 976.46 473.75"
/>
<path stroke="#717097" vector-effect="non-scaling-stroke" d="
  M 866.21 833.75
  Q 867.67 830.39 867.71 826.75"
/>
<path stroke="#717097" vector-effect="non-scaling-stroke" d="
  M 895.79 713.75
  Q 896.55 712.34 896.46 710.75"
/>
</g>
<path fill="#322a69" d="
  M 1447.82 724.00
  A 723.82 723.82 0.0 0 1 724.00 1447.82
  A 723.82 723.82 0.0 0 1 0.18 724.00
  A 723.82 723.82 0.0 0 1 724.00 0.18
  A 723.82 723.82 0.0 0 1 1447.82 724.00
  Z
  M 515.29 888.75
  Q 516.17 886.84 515.96 884.75
  Q 526.43 826.69 538.79 769.00
  Q 539.81 766.60 539.71 764.00
  L 551.79 707.25
  Q 552.81 705.52 552.71 703.50
  Q 566.22 640.26 580.79 577.25
  Q 581.69 575.62 581.71 573.75
  Q 593.10 523.35 604.75 473.00
  Q 605.88 468.15 606.79 463.25
  Q 608.20 460.56 608.21 457.50
  L 641.07 315.05
  A 0.35 0.35 -86.5 0 0 640.69 314.62
  L 446.52 340.01
  A 1.25 1.25 -88.0 0 0 445.47 340.99
  Q 408.24 522.62 373.61 705.18
  Q 371.77 714.89 370.00 724.84
  Q 350.57 834.09 331.47 943.40
  Q 329.68 953.65 328.18 963.13
  Q 314.34 1050.77 302.75 1138.75
  A 0.33 0.32 85.0 0 0 303.17 1139.11
  Q 320.10 1133.61 337.05 1129.46
  Q 380.57 1118.80 424.99 1112.93
  Q 496.32 1103.51 568.25 1101.75
  Q 595.24 1101.09 611.18 1101.55
  A 0.39 0.39 8.9 0 1 611.55 1102.05
  L 603.52 1129.46
  A 0.60 0.59 -85.4 0 0 604.16 1130.23
  Q 687.17 1119.46 770.50 1110.00
  Q 775.95 1109.38 793.94 1106.76
  A 0.78 0.78 -85.9 0 0 794.58 1106.20
  L 839.05 946.43
  A 0.68 0.65 -81.7 0 1 839.68 945.94
  L 935.82 945.75
  A 0.45 0.44 2.9 0 1 936.27 946.24
  Q 931.93 992.34 927.62 1038.23
  Q 926.67 1048.41 925.55 1058.12
  Q 920.46 1102.32 917.50 1124.75
  Q 916.57 1131.82 916.50 1134.54
  Q 918.84 1135.13 921.00 1134.04
  Q 971.71 1125.41 1022.47 1117.07
  Q 1037.21 1114.65 1057.25 1112.50
  Q 1077.31 1110.35 1104.58 1105.65
  A 0.62 0.61 85.9 0 0 1105.08 1105.07
  Q 1110.63 964.79 1115.59 824.49
  Q 1116.38 802.28 1118.50 758.75
  Q 1127.36 576.70 1134.04 456.75
  L 1134.46 448.25
  L 1142.04 346.25
  L 1142.71 340.00
  L 1145.31 309.55
  A 0.69 0.69 -2.6 0 0 1144.51 308.82
  Q 1059.41 324.01 973.25 331.75
  Q 874.30 340.63 837.50 343.46
  A 0.71 0.71 5.2 0 0 836.87 343.98
  Q 817.01 416.06 809.00 442.75
  Q 758.12 612.31 708.02 782.10
  Q 705.10 792.00 702.32 801.26
  Q 664.22 928.53 625.73 1055.55
  Q 625.42 1056.56 625.25 1055.52
  Q 618.84 1016.23 616.75 976.48
  A 0.45 0.44 -1.3 0 0 616.30 976.06
  Q 591.47 976.17 566.50 976.45
  Q 534.20 976.80 501.11 979.32
  A 0.45 0.45 -88.4 0 1 500.63 978.81
  Q 507.18 933.46 515.29 888.75
  Z"
/>
<path fill="#fffbf4" d="
  M 1142.71 340.00
  Q 1141.72 343.05 1142.04 346.25
  L 1134.46 448.25
  Q 1133.66 452.46 1134.04 456.75
  Q 1127.36 576.70 1118.50 758.75
  Q 1116.38 802.28 1115.59 824.49
  Q 1110.63 964.79 1105.08 1105.07
  A 0.62 0.61 85.9 0 1 1104.58 1105.65
  Q 1077.31 1110.35 1057.25 1112.50
  Q 1037.21 1114.65 1022.47 1117.07
  Q 971.71 1125.41 921.00 1134.04
  L 916.50 1134.54
  Q 916.57 1131.82 917.50 1124.75
  Q 920.46 1102.32 925.55 1058.12
  Q 926.67 1048.41 927.62 1038.23
  Q 931.93 992.34 936.27 946.24
  A 0.45 0.44 2.9 0 0 935.82 945.75
  L 839.68 945.94
  A 0.68 0.65 -81.7 0 0 839.05 946.43
  L 794.58 1106.20
  A 0.78 0.78 -85.9 0 1 793.94 1106.76
  Q 775.95 1109.38 770.50 1110.00
  Q 687.17 1119.46 604.16 1130.23
  A 0.60 0.59 -85.4 0 1 603.52 1129.46
  L 611.55 1102.05
  A 0.39 0.39 8.9 0 0 611.18 1101.55
  Q 595.24 1101.09 568.25 1101.75
  Q 496.32 1103.51 424.99 1112.93
  Q 380.57 1118.80 337.05 1129.46
  Q 320.10 1133.61 303.17 1139.11
  A 0.33 0.32 85.0 0 1 302.75 1138.75
  Q 314.34 1050.77 328.18 963.13
  Q 329.68 953.65 331.47 943.40
  Q 350.57 834.09 370.00 724.84
  Q 371.77 714.89 373.61 705.18
  Q 408.24 522.62 445.47 340.99
  A 1.25 1.25 -88.0 0 1 446.52 340.01
  L 640.69 314.62
  A 0.35 0.35 -86.5 0 1 641.07 315.05
  L 608.21 457.50
  Q 606.87 460.22 606.79 463.25
  Q 605.88 468.15 604.75 473.00
  Q 593.10 523.35 581.71 573.75
  Q 580.55 575.28 580.79 577.25
  Q 566.22 640.26 552.71 703.50
  Q 551.35 705.11 551.79 707.25
  L 539.71 764.00
  Q 538.74 766.42 538.79 769.00
  Q 526.43 826.69 515.96 884.75
  Q 515.08 886.65 515.29 888.75
  Q 507.18 933.46 500.63 978.81
  A 0.45 0.45 -88.4 0 0 501.11 979.32
  Q 534.20 976.80 566.50 976.45
  Q 591.47 976.17 616.30 976.06
  A 0.45 0.44 -1.3 0 1 616.75 976.48
  Q 618.84 1016.23 625.25 1055.52
  Q 625.42 1056.56 625.73 1055.55
  Q 664.22 928.53 702.32 801.26
  Q 705.10 792.00 708.02 782.10
  Q 758.12 612.31 809.00 442.75
  Q 817.01 416.06 836.87 343.98
  A 0.71 0.71 5.2 0 1 837.50 343.46
  Q 874.30 340.63 973.25 331.75
  Q 1059.41 324.01 1144.51 308.82
  A 0.69 0.69 -2.6 0 1 1145.31 309.55
  L 1142.71 340.00
  Z
  M 896.46 710.75
  Q 895.39 712.04 895.79 713.75
  Q 885.13 756.62 874.66 799.54
  Q 871.34 813.18 867.71 826.75
  Q 866.11 830.10 866.21 833.75
  Q 867.33 834.08 869.25 834.00
  Q 883.67 833.37 898.09 832.67
  Q 898.19 832.67 915.41 831.99
  Q 930.66 831.39 945.62 829.79
  A 0.96 0.95 87.9 0 0 946.47 828.87
  Q 946.69 821.24 947.28 814.75
  Q 956.40 715.27 965.00 615.75
  Q 966.35 600.17 970.01 562.96
  Q 971.01 552.82 971.70 543.02
  Q 974.13 508.39 976.46 473.75
  Q 977.32 470.94 976.96 468.00
  L 977.66 457.13
  A 0.67 0.61 -89.8 0 0 977.01 456.41
  L 961.56 457.52
  A 0.71 0.69 -84.1 0 0 960.93 458.05
  Q 954.50 481.25 948.48 504.57
  Q 946.06 513.94 943.31 523.89
  Q 935.25 553.11 928.03 582.56
  Q 912.31 646.67 896.46 710.75
  Z"
/>
<path fill="#b0b6c4" d="
  M 1142.71 340.00
  L 1142.04 346.25
  Q 1141.72 343.05 1142.71 340.00
  Z"
/>
<path fill="#b0b6c4" d="
  M 1134.46 448.25
  L 1134.04 456.75
  Q 1133.66 452.46 1134.46 448.25
  Z"
/>
<path fill="#322a69" d="
  M 976.96 468.00
  Q 975.62 470.81 976.46 473.75
  Q 974.13 508.39 971.70 543.02
  Q 971.01 552.82 970.01 562.96
  Q 966.35 600.17 965.00 615.75
  Q 956.40 715.27 947.28 814.75
  Q 946.69 821.24 946.47 828.87
  A 0.96 0.95 87.9 0 1 945.62 829.79
  Q 930.66 831.39 915.41 831.99
  Q 898.19 832.67 898.09 832.67
  Q 883.67 833.37 869.25 834.00
  Q 867.33 834.08 866.21 833.75
  Q 867.67 830.39 867.71 826.75
  Q 871.34 813.18 874.66 799.54
  Q 885.13 756.62 895.79 713.75
  Q 896.55 712.34 896.46 710.75
  Q 912.31 646.67 928.03 582.56
  Q 935.25 553.11 943.31 523.89
  Q 946.06 513.94 948.48 504.57
  Q 954.50 481.25 960.93 458.05
  A 0.71 0.69 -84.1 0 1 961.56 457.52
  L 977.01 456.41
  A 0.67 0.61 -89.8 0 1 977.66 457.13
  L 976.96 468.00
  Z"
/>
<path fill="#b0b6c4" d="
  M 608.21 457.50
  Q 608.20 460.56 606.79 463.25
  Q 606.87 460.22 608.21 457.50
  Z"
/>
<path fill="#737898" d="
  M 976.96 468.00
  Q 977.32 470.94 976.46 473.75
  Q 975.62 470.81 976.96 468.00
  Z"
/>
<path fill="#b0b6c4" d="
  M 581.71 573.75
  Q 581.69 575.62 580.79 577.25
  Q 580.55 575.28 581.71 573.75
  Z"
/>
<path fill="#b0b6c4" d="
  M 552.71 703.50
  Q 552.81 705.52 551.79 707.25
  Q 551.35 705.11 552.71 703.50
  Z"
/>
<path fill="#b0b6c4" d="
  M 896.46 710.75
  Q 896.55 712.34 895.79 713.75
  Q 895.39 712.04 896.46 710.75
  Z"
/>
<path fill="#737898" d="
  M 539.71 764.00
  Q 539.81 766.60 538.79 769.00
  Q 538.74 766.42 539.71 764.00
  Z"
/>
<path fill="#b0b6c4" d="
  M 867.71 826.75
  Q 867.67 830.39 866.21 833.75
  Q 866.11 830.10 867.71 826.75
  Z"
/>
<path fill="#737898" d="
  M 515.96 884.75
  Q 516.17 886.84 515.29 888.75
  Q 515.08 886.65 515.96 884.75
  Z"
/>
<path fill="#737898" d="
  M 921.00 1134.04
  Q 918.84 1135.13 916.50 1134.54
  L 921.00 1134.04
  Z"
/>
</svg>
